# xmcd
#
# Track frame offsets: 
#        150
#        17942
#        35112
#        53211
#        67550
#        81072
#        94381
#        110282
#        126152
#        140591
#        153365
#        172622
#
# Disc length: 2523 seconds
#
# Revision: 4
# Processed by: cddbd v1.5.2PL0 Copyright (c) Steve Scherf et al.
# Submitted via: ExactAudioCopyFreeDBPlugin 1.0
#
DISCID=9509d90c
DTITLE=Various Artist - Best Of The 70s [CD#02)
DYEAR=2004
DGENRE=Classic Rock
TTITLE0=Brother Louie - The Stories
TTITLE1=Maria Muldaur - Midnight at the Oasis
TTITLE2=Ozark Mountain Daredevils - Jackie Blue
TTITLE3=Badfinger - Day After Day
TTITLE4=Hamilton, Joe Frank and Reynolds - Fallin' in Love
TTITLE5=Pilot - Magic
TTITLE6=Sweet - Fox on the Run ft. Brian Connolly
TTITLE7=B.J. Thomas - Another Somebody Done Somebody Wrong Song
TTITLE8=Harold Melvin and The Bluenotes - Bad Luck
TTITLE9=Maxine Nightingale - Lead Me On
TTITLE10=Ben E. King - Supernatural Thing
TTITLE11=Ozark Mountain Daredevils - If You Wanna Get to Heaven
EXTD=Submitted by Robert Orin Charles Kilroy.
EXTT0=
EXTT1=
EXTT2=
EXTT3=
EXTT4=
EXTT5=
EXTT6=
EXTT7=
EXTT8=
EXTT9=
EXTT10=
EXTT11=
PLAYORDER=
